Coordinates
version=1
nRows=14
nColumns=28
inDegrees=yes

Units are S.I. units (second, meters, Newtons, ...)
Angles are in degrees.

endheader
time	pelvis_tilt	pelvis_list	pelvis_rotation	pelvis_tx	pelvis_ty	pelvis_tz	hip_flexion_r	hip_adduction_r	hip_rotation_r	knee_angle_r	ankle_angle_r	subtalar_angle_r	mtp_angle_r	hip_flexion_l	hip_adduction_l	hip_rotation_l	knee_angle_l	socket_flexion	socket_adduction	socket_rotation	socket_tx	socket_ty	socket_tz	foot_flex	lumbar_extension	lumbar_bending	lumbar_rotation
      0.93750000	      4.25438186	     -1.25865342	     -0.74865922	      0.41826675	      1.03814510	      0.29187747	      1.05561812	      3.74145867	     -7.72838982	    -17.85334686	     12.50486992	     -1.90803465	      8.53536357	     10.49696976	     -1.42542261	      1.11891731	    -64.54074800	     -5.50742344	      0.00000000	      0.00000000	      0.00000000	      0.02631179	      0.00000000	      0.44157157	    -11.77915894	      2.15687123	      2.33208675
      0.94166667	      4.18907862	     -1.01815721	     -0.91062802	      0.42317564	      1.03897633	      0.29237792	      0.51713745	      3.52110680	     -7.57869943	    -17.22667412	     12.42309128	     -1.53980124	      8.54870955	     11.18611905	     -1.13241380	      1.14535041	    -64.29344745	     -5.57694654	      0.00000000	      0.00000000	      0.00000000	      0.02715193	      0.00000000	      0.42558530	    -11.67402625	      1.77116872	      2.61069324
      0.94583333	      4.14229119	     -0.86705623	     -1.11558721	      0.42780199	      1.03966953	      0.29278806	      0.11789885	      3.35914549	     -7.50264458	    -16.89306018	     12.32109318	     -1.24740399	      8.56997979	     11.79377066	     -0.91959063	      1.19679540	    -63.91585967	     -5.61114828	      0.00000000	      0.00000000	      0.00000000	      0.02738713	      0.00000000	      0.42571720	    -11.65259713	      1.54628105	      2.90202319
      0.95000000	      4.10262418	     -0.74505408	     -1.34702823	      0.43242419	      1.04029997	      0.29321820	     -0.26802158	      3.21665950	     -7.46392306	    -16.60039213	     12.26856560	     -1.00052898	      8.60606190	     12.36240147	     -0.74748869	      1.22505019	    -63.48058777	     -5.63567760	      0.00000000	      0.00000000	      0.00000000	      0.02750525	      0.00000000	      0.42825730	    -11.63331782	      1.36288599	      3.15909417
      0.95416667	      4.05161543	     -0.62136783	     -1.56164122	      0.43708403	      1.04089282	      0.29362406	     -0.65853124	      3.07605410	     -7.39701233	    -16.27188668	     12.22181082	     -0.74311882	      8.64931422	     12.91807906	     -0.57410425	      1.27228099	    -62.98403100	     -5.65514513	      0.00000000	      0.00000000	      0.00000000	      0.02753954	      0.00000000	      0.42803125	    -11.60930240	      1.16871230	      3.40741799
      0.95833333	      4.06725373	     -0.61936519	     -1.78793538	      0.44133039	      1.04136457	      0.29393332	     -0.94973115	      3.02894093	     -7.44916414	    -16.26337754	     12.22355478	     -0.71280778	      8.65439048	     13.46180845	     -0.53652761	      1.31816919	    -62.60623609	     -5.75461664	      0.00000000	      0.00000000	      0.00000000	      0.02757914	      0.00000000	      0.45501096	    -11.74058968	      1.17337921	      3.44351560
      0.96250000	      4.09588185	     -0.29818434	     -2.20072937	      0.44658393	      1.04221618	      0.29475793	     -1.52175104	      2.66707199	     -7.22925935	    -15.76737151	     12.10522357	     -0.04597848	      9.09107471	     13.47817565	     -0.20005534	      1.18047129	    -61.16006726	     -5.33694254	      0.00000000	      0.00000000	      0.00000000	      0.02596688	      0.00000000	      0.43273789	    -11.69650783	      0.64772920	      4.25077773
      0.96666667	      4.06529929	     -0.23236818	     -2.34462733	      0.45104862	      1.04267432	      0.29502781	     -1.92321427	      2.58989427	     -7.17934729	    -15.43921749	     12.08854856	      0.10481807	      9.12685554	     14.05729702	     -0.07744052	      1.32446012	    -60.70637865	     -5.42148216	      0.00000000	      0.00000000	      0.00000000	      0.02627247	      0.00000000	      0.43321314	    -11.71649589	      0.55560775	      4.32556922
      0.97083333	      4.08396546	     -0.24397506	     -2.55805986	      0.45520448	      1.04301816	      0.29533979	     -2.20560772	      2.55343711	     -7.22891461	    -15.43629188	     12.08778046	      0.12504280	      9.13002203	     14.60252215	     -0.06320006	      1.40013599	    -60.30631573	     -5.55569106	      0.00000000	      0.00000000	      0.00000000	      0.02651758	      0.00000000	      0.46357910	    -11.85167730	      0.55616155	      4.34318490
      0.97500000	      3.91263918	     -0.10719886	     -2.71085251	      0.46040763	      1.04339064	      0.29572256	     -2.64933449	      2.43132601	     -7.08380687	    -14.76830309	     11.78769122	      0.43702926	      9.23100780	     14.94938686	      0.13202879	      1.59526998	    -59.06286717	     -5.26300281	      0.00000000	      0.00000000	      0.00000000	      0.02527780	      0.00000000	      0.45824455	    -11.59070175	      0.34382131	      4.68946227
      0.97916667	      3.89375627	     -0.04125163	     -2.87680931	      0.46485058	      1.04372289	      0.29606551	     -3.05750143	      2.35739186	     -6.96758053	    -14.45285335	     11.86517163	      0.56597549	      9.30038324	     15.45789120	      0.24055378	      1.74115514	    -58.47748733	     -5.33677276	      0.00000000	      0.00000000	      0.00000000	      0.02548246	      0.00000000	      0.42369281	    -11.62916760	      0.23484212	      4.79135287
      0.98333333	      3.91270115	     -0.06108328	     -3.08323754	      0.46893883	      1.04392172	      0.29639113	     -3.32530803	      2.32812040	     -7.01506305	    -14.47264347	     11.86722003	      0.57799113	      9.30421686	     15.99343514	      0.23455155	      1.82434488	    -58.04466693	     -5.49846094	      0.00000000	      0.00000000	      0.00000000	      0.02584504	      0.00000000	      0.46306259	    -11.77877636	      0.23210680	      4.80682088
      0.98750000	      3.85278890	      0.09152104	     -3.37043416	      0.47436009	      1.04440401	      0.29700188	     -3.90521396	      2.17664669	     -6.70269180	    -13.77926386	     11.56431607	      0.77132683	      9.53231415	     15.84747739	      0.40887574	      1.96761367	    -56.00488187	     -4.84801662	      0.00000000	      0.00000000	      0.00000000	      0.02308710	      0.00000000	      0.43796355	    -11.60988041	     -0.02070255	      5.26767106
      0.99166667	      3.87984416	      0.07158559	     -3.56894624	      0.47839795	      1.04451337	      0.29737027	     -4.18912730	      2.15283848	     -6.74036397	    -13.77582238	     11.58323389	      0.78359409	      9.54216463	     16.39474125	      0.39239552	      2.06338072	    -55.61707439	     -5.07528900	      0.00000000	      0.00000000	      0.00000000	      0.02371889	      0.00000000	      0.47034397	    -11.76966928	     -0.03223893	      5.28032693
